<?xml version="1.0" encoding="iso-8859-1"?>
<!-- Generator: Adobe Illustrator 19.0.0, SVG Export Plug-In . SVG Version: 6.00 Build 0)  -->
<svg version="1.1" id="Capa_1" xmlns="http://www.w3.org/2000/svg" xmlns:xlink="http://www.w3.org/1999/xlink" x="0px" y="0px"
	 viewBox="0 0 443.037 443.037" style="enable-background:new 0 0 443.037 443.037;" xml:space="preserve">
<path style="fill:#3A2C51;" d="M143.151,110.759c0-43.886,35.004-79.412,78.367-79.412c20.898,0,40.229,8.359,54.857,22.988
	c15.151,15.673,23.51,35.527,23.51,56.424v53.812h31.347v-53.812c0-29.257-11.494-56.947-32.392-78.367
	C277.943,11.494,250.775,0,221.518,0c-60.604,0-109.714,49.633-109.714,110.759v53.812h31.347V110.759z"/>
<path style="fill:#4DCFE0;" d="M362.58,160.914h-31.347h-31.347H143.151h-31.347H80.457c-8.882,0-15.673,6.792-15.673,15.673v208.98
	c0,6.792,4.702,13.061,10.971,15.151l141.061,41.796c1.567,0.522,3.135,0.522,4.702,0.522c1.567,0,3.135,0,4.702-0.522
	l141.061-41.796c6.792-2.09,10.971-7.837,10.971-15.151v-208.98C378.253,167.706,371.461,160.914,362.58,160.914z"/>
<path style="fill:#00BBD3;" d="M237.192,281.078c0-8.882-6.792-15.673-15.673-15.673s-15.673,6.792-15.673,15.673v41.796
	c0,8.882,6.792,15.673,15.673,15.673s15.673-6.792,15.673-15.673V281.078z"/>
<g>
</g>
<g>
</g>
<g>
</g>
<g>
</g>
<g>
</g>
<g>
</g>
<g>
</g>
<g>
</g>
<g>
</g>
<g>
</g>
<g>
</g>
<g>
</g>
<g>
</g>
<g>
</g>
<g>
</g>
</svg>
